<?xml version="1.0" standalone="no"?>
<svg viewBox="0 0 200 200" xmlns="http://www.w3.org/2000/svg">
  <path fill="#D0E2FF" d="M13,-19.7C23.8,-16.3,44.4,-26.9,55.2,-26C66,-25,67.1,-12.5,57.4,-5.6C47.7,1.3,27.3,2.6,18.2,6.6C9.1,10.5,11.4,17,10.2,19.2C9.1,21.4,4.5,19.3,-0.5,20.1C-5.5,20.9,-11,24.7,-18.4,26.1C-25.7,27.5,-35,26.5,-39.9,21.8C-44.8,17,-45.3,8.5,-38.7,3.8C-32.2,-1,-18.6,-1.9,-14.8,-8.5C-11,-15.2,-16.9,-27.4,-16.1,-36.6C-15.3,-45.7,-7.6,-51.7,-3.3,-46.1C1.1,-40.4,2.2,-23,13,-19.7Z" transform="translate(100 100)" />
</svg>
