<?xml version="1.0" standalone="no"?>
<svg viewBox="0 0 200 200" xmlns="http://www.w3.org/2000/svg">
  <path fill="#0F62FE" d="M42.7,-68C56.5,-57.7,69.6,-47.7,78.1,-34.2C86.6,-20.6,90.5,-3.5,86.4,11.1C82.2,25.7,70,37.9,58.6,50.6C47.3,63.2,36.8,76.5,22.5,84.1C8.2,91.8,-10,93.8,-25.5,88.5C-40.9,83.1,-53.7,70.4,-62.2,56.3C-70.8,42.2,-75,26.8,-75.9,11.8C-76.8,-3.3,-74.2,-18,-69.7,-33.4C-65.1,-48.8,-58.6,-64.9,-46.6,-76C-34.7,-87.2,-17.3,-93.5,-1.4,-91.3C14.5,-89.1,29,-78.4,42.7,-68Z" transform="translate(100 100)" />
</svg>
