<?xml version="1.0" standalone="no"?>
<svg viewBox="0 0 200 200" xmlns="http://www.w3.org/2000/svg">
  <path fill="#8A3FFC" d="M43.2,-68C57.2,-66.8,70.4,-57.5,75.5,-44.9C80.6,-32.2,77.7,-16.1,76.5,-0.6C75.4,14.8,76.1,29.6,69,38.7C61.8,47.9,46.7,51.4,33.9,53.8C21.1,56.3,10.6,57.7,-1.5,60.3C-13.5,62.8,-27,66.5,-37.6,62.7C-48.1,59,-55.7,47.8,-61,36.1C-66.2,24.4,-69.1,12.2,-69,0.1C-68.8,-12,-65.6,-24,-61.1,-37C-56.5,-49.9,-50.7,-63.8,-40.3,-67C-29.9,-70.2,-15,-62.7,-0.1,-62.4C14.7,-62.1,29.3,-69.2,43.2,-68Z" transform="translate(100 100)" />
</svg>
