<?xml version="1.0" standalone="no"?>
<svg viewBox="0 0 200 200" xmlns="http://www.w3.org/2000/svg">
  <path fill="#FA4D56" d="M35.6,-63.3C44.2,-56.7,47.8,-43.2,48.9,-31.5C50,-19.8,48.5,-9.9,48.8,0.1C49,10.1,50.8,20.3,48,29C45.2,37.7,37.7,44.9,28.9,44.4C20.1,43.8,10,35.4,1.7,32.5C-6.7,29.6,-13.4,32.2,-23.2,33.3C-32.9,34.5,-45.8,34.2,-52.8,28.4C-59.9,22.6,-61.1,11.3,-57.2,2.2C-53.3,-6.8,-44.4,-13.6,-40.3,-24.6C-36.3,-35.5,-37.1,-50.6,-31.2,-58.7C-25.3,-66.8,-12.6,-68,0.4,-68.7C13.5,-69.5,27,-69.9,35.6,-63.3Z" transform="translate(100 100)" />
</svg>
