<?xml version="1.0" standalone="no"?>
<svg viewBox="0 0 200 200" xmlns="http://www.w3.org/2000/svg">
  <path fill="#A7F0BA" d="M30.1,-57.4C35.5,-49,33.8,-33.8,38.2,-23.1C42.7,-12.4,53.1,-6.2,53.7,0.3C54.2,6.8,44.9,13.7,36.6,17.6C28.2,21.6,20.9,22.6,15,28.4C9.1,34.1,4.6,44.6,-3.3,50.3C-11.2,56.1,-22.4,57.1,-27.9,51.1C-33.5,45.2,-33.5,32.2,-32.7,22.6C-31.8,12.9,-30.1,6.4,-33.3,-1.8C-36.5,-10.1,-44.5,-20.2,-43.3,-26.3C-42.1,-32.4,-31.5,-34.4,-22.8,-40.8C-14,-47.1,-7,-57.9,2.7,-62.5C12.4,-67.1,24.7,-65.7,30.1,-57.4Z" transform="translate(100 100)" />
</svg>
